<?xml version="1.0" encoding="UTF-8" standalone="no"?>
<!-- Created with Inkscape (http://www.inkscape.org/) -->

<svg
   xmlns:dc="http://purl.org/dc/elements/1.1/"
   xmlns:cc="http://creativecommons.org/ns#"
   xmlns:rdf="http://www.w3.org/1999/02/22-rdf-syntax-ns#"
   xmlns:svg="http://www.w3.org/2000/svg"
   xmlns="http://www.w3.org/2000/svg"
   xmlns:sodipodi="http://sodipodi.sourceforge.net/DTD/sodipodi-0.dtd"
   xmlns:inkscape="http://www.inkscape.org/namespaces/inkscape"
   version="1.1"
   id="svg3767"
   width="500"
   height="500"
   viewBox="0 0 500 500"
   sodipodi:docname="circle-outline-blue-light.svg"
   inkscape:export-filename="/home/kremor/.config/awesome/icons/close-icon.png"
   inkscape:export-xdpi="96"
   inkscape:export-ydpi="96"
   inkscape:version="0.92.4 5da689c313, 2019-01-14">
  <metadata
     id="metadata3773">
    <rdf:RDF>
      <cc:Work
         rdf:about="">
        <dc:format>image/svg+xml</dc:format>
        <dc:type
           rdf:resource="http://purl.org/dc/dcmitype/StillImage" />
        <dc:title></dc:title>
      </cc:Work>
    </rdf:RDF>
  </metadata>
  <defs
     id="defs3771" />
  <sodipodi:namedview
     pagecolor="#ffffff"
     bordercolor="#666666"
     borderopacity="1"
     objecttolerance="10"
     gridtolerance="10"
     guidetolerance="10"
     inkscape:pageopacity="0"
     inkscape:pageshadow="2"
     inkscape:window-width="1350"
     inkscape:window-height="732"
     id="namedview3769"
     showgrid="false"
     showguides="true"
     inkscape:guide-bbox="true"
     inkscape:zoom="0.533"
     inkscape:cx="305.60799"
     inkscape:cy="170.87783"
     inkscape:window-x="1372"
     inkscape:window-y="26"
     inkscape:window-maximized="0"
     inkscape:current-layer="svg3767">
    <sodipodi:guide
       position="250.73768,-43.779594"
       orientation="1,0"
       id="guide3779"
       inkscape:locked="false" />
    <sodipodi:guide
       position="-33.166359,250.73768"
       orientation="0,1"
       id="guide3781"
       inkscape:locked="false" />
  </sodipodi:namedview>
  <path
     style="display:inline;fill:#4dd0d1;fill-opacity:1;stroke:none;stroke-width:0;stroke-miterlimit:4;stroke-dasharray:none;stroke-opacity:1"
     d="M 250 125 A 125 125 0 0 0 125 250 A 125 125 0 0 0 250 375 A 125 125 0 0 0 375 250 A 125 125 0 0 0 250 125 z M 250 150 A 100 100 0 0 1 350 250 A 100 100 0 0 1 250 350 A 100 100 0 0 1 150 250 A 100 100 0 0 1 250 150 z "
     id="path3783" />
</svg>
